G75*
%MOIN*%
%OFA0B0*%
%FSLAX25Y25*%
%IPPOS*%
%LPD*%
%AMOC8*
5,1,8,0,0,1.08239X$1,22.5*
%
%ADD10OC8,0.06400*%
%ADD11C,0.08400*%
%ADD12OC8,0.07400*%
%ADD13OC8,0.06000*%
%ADD14C,0.07400*%
%ADD15C,0.13800*%
%ADD16C,0.08600*%
%ADD17C,0.04762*%
%ADD18C,0.04800*%
D10*
X0206800Y0121800D03*
X0206800Y0131800D03*
X0206800Y0146800D03*
X0206800Y0156800D03*
X0226800Y0116800D03*
X0226800Y0106800D03*
X0226800Y0091800D03*
X0226800Y0081800D03*
D11*
X0236800Y0061800D03*
X0196800Y0061800D03*
X0176800Y0061800D03*
X0136800Y0061800D03*
X0116800Y0061800D03*
X0076800Y0061800D03*
X0061800Y0061800D03*
X0021800Y0061800D03*
D12*
X0026800Y0171800D03*
X0046800Y0171800D03*
X0066800Y0171800D03*
X0086800Y0171800D03*
X0106800Y0171800D03*
X0121800Y0171800D03*
X0141800Y0171800D03*
X0161800Y0171800D03*
X0176800Y0176800D03*
X0186800Y0176800D03*
X0196800Y0176800D03*
X0206800Y0176800D03*
X0221800Y0176800D03*
X0231800Y0176800D03*
X0231800Y0196800D03*
X0221800Y0196800D03*
X0206800Y0196800D03*
X0196800Y0196800D03*
X0186800Y0196800D03*
X0176800Y0196800D03*
X0161800Y0201800D03*
X0161800Y0216800D03*
X0141800Y0216800D03*
X0141800Y0201800D03*
X0121800Y0201800D03*
X0121800Y0216800D03*
X0106800Y0216800D03*
X0106800Y0201800D03*
X0086800Y0201800D03*
X0086800Y0216800D03*
X0066800Y0216800D03*
X0066800Y0201800D03*
X0046800Y0201800D03*
X0046800Y0216800D03*
X0026800Y0216800D03*
X0026800Y0201800D03*
X0026800Y0246800D03*
X0046800Y0246800D03*
X0066800Y0246800D03*
X0086800Y0246800D03*
X0106800Y0246800D03*
X0121800Y0246800D03*
X0141800Y0246800D03*
X0161800Y0246800D03*
X0181800Y0246800D03*
X0196800Y0246800D03*
X0211800Y0246800D03*
X0226800Y0246800D03*
X0226800Y0216800D03*
X0211800Y0216800D03*
X0196800Y0216800D03*
X0181800Y0216800D03*
X0221800Y0151800D03*
X0231800Y0151800D03*
X0231800Y0131800D03*
X0221800Y0131800D03*
D13*
X0186800Y0131800D03*
X0176800Y0131800D03*
X0166800Y0131800D03*
X0166800Y0161800D03*
X0186800Y0161800D03*
X0136800Y0161800D03*
X0116800Y0161800D03*
X0091800Y0161800D03*
X0071800Y0161800D03*
X0051800Y0161800D03*
X0031800Y0161800D03*
X0031800Y0131800D03*
X0041800Y0131800D03*
X0051800Y0131800D03*
X0071800Y0131800D03*
X0081800Y0131800D03*
X0091800Y0131800D03*
X0116800Y0131800D03*
X0126800Y0131800D03*
X0136800Y0131800D03*
D14*
X0136800Y0090100D02*
X0136800Y0083500D01*
X0126800Y0083500D02*
X0126800Y0090100D01*
X0146800Y0090100D02*
X0146800Y0083500D01*
X0171800Y0083500D02*
X0171800Y0090100D01*
X0181800Y0090100D02*
X0181800Y0083500D01*
X0191800Y0083500D02*
X0191800Y0090100D01*
X0096800Y0090100D02*
X0096800Y0083500D01*
X0086800Y0083500D02*
X0086800Y0090100D01*
X0076800Y0090100D02*
X0076800Y0083500D01*
X0046800Y0083500D02*
X0046800Y0090100D01*
X0036800Y0090100D02*
X0036800Y0083500D01*
X0026800Y0083500D02*
X0026800Y0090100D01*
D15*
X0036800Y0155800D03*
X0086800Y0155800D03*
X0136800Y0155800D03*
X0181800Y0155800D03*
D16*
X0031900Y0030700D02*
X0031900Y0022900D01*
X0051700Y0022900D02*
X0051700Y0030700D01*
X0091900Y0030700D02*
X0091900Y0022900D01*
X0111700Y0022900D02*
X0111700Y0030700D01*
X0151900Y0030700D02*
X0151900Y0022900D01*
X0171700Y0022900D02*
X0171700Y0030700D01*
X0206900Y0030700D02*
X0206900Y0022900D01*
X0226700Y0022900D02*
X0226700Y0030700D01*
X0221700Y0267900D02*
X0221700Y0275700D01*
X0201900Y0275700D02*
X0201900Y0267900D01*
X0166700Y0267900D02*
X0166700Y0275700D01*
X0146900Y0275700D02*
X0146900Y0267900D01*
X0106700Y0267900D02*
X0106700Y0275700D01*
X0086900Y0275700D02*
X0086900Y0267900D01*
X0051700Y0267900D02*
X0051700Y0275700D01*
X0031900Y0275700D02*
X0031900Y0267900D01*
D17*
X0072800Y0166800D03*
X0072800Y0154800D03*
X0067800Y0149800D03*
X0079800Y0137800D03*
X0088800Y0118800D03*
X0103800Y0110800D03*
X0103800Y0083800D03*
X0109800Y0076800D03*
X0103800Y0066800D03*
X0097800Y0061800D03*
X0094800Y0052800D03*
X0119800Y0052800D03*
X0153800Y0058800D03*
X0166800Y0058800D03*
X0187800Y0030800D03*
X0198800Y0037800D03*
X0199800Y0074800D03*
X0155800Y0093800D03*
X0137800Y0137800D03*
X0171800Y0141800D03*
X0176800Y0146800D03*
X0054800Y0149800D03*
X0045800Y0152800D03*
D18*
X0058600Y0158100D03*
X0052000Y0168000D03*
X0036600Y0174600D03*
X0069600Y0148200D03*
X0075100Y0172400D03*
X0094900Y0188900D03*
X0099300Y0179000D03*
X0090500Y0209800D03*
X0094900Y0227400D03*
X0094900Y0234000D03*
X0082800Y0232900D03*
X0074000Y0196600D03*
X0038800Y0246100D03*
X0157600Y0186700D03*
X0167500Y0220800D03*
X0185100Y0259300D03*
X0226900Y0234000D03*
X0232400Y0239500D03*
X0217000Y0192200D03*
X0158700Y0121800D03*
X0115800Y0089900D03*
X0152100Y0049200D03*
X0219200Y0108600D03*
X0043200Y0066800D03*
M02*
