%
M48
M72
T01C0.02362
T02C0.02400
T03C0.03200
T04C0.04400
T05C0.05200
T06C0.13000
%
T01
X94800Y52800
X97800Y61800
X103800Y66800
X109800Y76800
X103800Y83800
X103800Y110800
X88800Y118800
X79800Y137800
X67800Y149800
X72800Y154800
X72800Y166800
X54800Y149800
X45800Y152800
X119800Y52800
X153800Y58800
X166800Y58800
X187800Y30800
X198800Y37800
X199800Y74800
X155800Y93800
X137800Y137800
X171800Y141800
X176800Y146800
T02
X158700Y121800
X115800Y89900
X152100Y49200
X219200Y108600
X157600Y186700
X167500Y220800
X185100Y259300
X226900Y234000
X232400Y239500
X217000Y192200
X99300Y179000
X94900Y188900
X90500Y209800
X94900Y227400
X94900Y234000
X82800Y232900
X74000Y196600
X75100Y172400
X58600Y158100
X52000Y168000
X36600Y174600
X69600Y148200
X43200Y66800
X38800Y246100
T03
X46800Y246800
X66800Y246800
X86800Y246800
X106800Y246800
X121800Y246800
X141800Y246800
X161800Y246800
X181800Y246800
X196800Y246800
X211800Y246800
X226800Y246800
X226800Y216800
X211800Y216800
X196800Y216800
X181800Y216800
X176800Y196800
X186800Y196800
X196800Y196800
X206800Y196800
X221800Y196800
X231800Y196800
X231800Y176800
X221800Y176800
X206800Y176800
X196800Y176800
X186800Y176800
X176800Y176800
X166800Y161800
X161800Y171800
X141800Y171800
X136800Y161800
X121800Y171800
X116800Y161800
X106800Y171800
X91800Y161800
X86800Y171800
X71800Y161800
X66800Y171800
X51800Y161800
X46800Y171800
X31800Y161800
X26800Y171800
X26800Y201800
X26800Y216800
X46800Y216800
X46800Y201800
X66800Y201800
X66800Y216800
X86800Y216800
X86800Y201800
X106800Y201800
X106800Y216800
X121800Y216800
X121800Y201800
X141800Y201800
X141800Y216800
X161800Y216800
X161800Y201800
X186800Y161800
X206800Y156800
X206800Y146800
X206800Y131800
X206800Y121800
X221800Y131800
X231800Y131800
X226800Y116800
X226800Y106800
X226800Y91800
X226800Y81800
X186800Y131800
X176800Y131800
X166800Y131800
X136800Y131800
X126800Y131800
X116800Y131800
X91800Y131800
X81800Y131800
X71800Y131800
X51800Y131800
X41800Y131800
X31800Y131800
X26800Y246800
X221800Y151800
X231800Y151800
T04
X191800Y86800
X181800Y86800
X171800Y86800
X176800Y61800
X196800Y61800
X236800Y61800
X146800Y86800
X136800Y86800
X126800Y86800
X116800Y61800
X136800Y61800
X96800Y86800
X86800Y86800
X76800Y86800
X76800Y61800
X61800Y61800
X46800Y86800
X36800Y86800
X26800Y86800
X21800Y61800
T05
X31900Y26800
X51700Y26800
X91900Y26800
X111700Y26800
X151900Y26800
X171700Y26800
X206900Y26800
X226700Y26800
X221700Y271800
X201900Y271800
X166700Y271800
X146900Y271800
X106700Y271800
X86900Y271800
X51700Y271800
X31900Y271800
T06
X36800Y155800
X86800Y155800
X136800Y155800
X181800Y155800
M30
